<?xml version="1.0" encoding="UTF-8"?><svg id="Ebene_2" xmlns="http://www.w3.org/2000/svg" viewBox="0 0 1024 1024"><defs><style>.cls-1{fill:#a62f24;}</style></defs><path class="cls-1" d="M273.61114,700.37365c-4.45767-3.11877-10.10316-7.41553-14.88511-11.05513-2.15452-1.63984-4.10145-3.12123-5.63197-4.25991-12.55494-9.21752-25.32607-18.49031-37.96945-27.56903-4.05846-2.88293-8.155-5.86659-12.11642-8.75198-4.96007-3.61257-10.08842-7.3492-15.18115-10.9151l-.56872-.39798-.69033.0651c-12.68392,1.19273-26.91801,1.80936-40.6841,2.40633-2.74904.11915-5.4686.23707-8.14026.35868,7.62067-8.36505,15.85797-16.95119,23.85451-25.28799,3.06227-3.19125,6.09138-6.34933,9.04432-9.45213l57.92518-60.95183c.64611-.67928,1.96904-2.03292,3.70224-3.80911,17.73242-18.15989,24.22915-25.31993,24.82859-27.36328,2.10784-7.18092,5.22416-22.82699,7.9732-36.63178,1.47033-7.3836,2.86205-14.37658,3.87298-18.89751,2.53777-2.07468,6.11963-4.58481,9.30105-6.8161,1.11534-.78123,2.17295-1.52254,3.10772-2.19137l20.88682-15.0534,68.81817-49.57058c-6.09383,8.59475-15.86902,21.93092-19.94713,27.49349-1.61159,2.19813-2.80923,3.83122-3.35339,4.58481l-70.64226,97.74452c-13.15929,18.00082-26.44755,36.43463-39.49137,54.77877l-.52082.73332,36.50771,130.80918Z"/><path class="cls-1" d="M.28418,765.58539c.81562-1.14482,1.54895-2.15943,2.00466-2.78958.46554-.64365.83159-1.15096,1.04287-1.45068l27.15139-38.44236,103.234-145.99278c3.10281-4.2943,6.40829-5.84325,10.98265-7.98549.89424-.41887,1.8241-.85493,2.79449-1.3303l17.85649-8.73969,56.64401-28.04809c-4.32501,4.51418-8.64879,9.04432-12.94678,13.56096l-67.60456,70.87565c-1.81795,1.89657-3.8607,3.99581-6.01276,6.20807-6.92665,7.12073-14.77702,15.19097-20.29107,21.7614-.85493,1.0183-1.81673,3.9172-4.44785,16.29526l-7.25708,33.84343c-8.5579,6.29528-17.87983,12.72445-26.90081,18.94726-3.64942,2.51688-7.2669,5.01166-10.79226,7.46958L.28418,765.58539Z"/><path class="cls-1" d="M135.16533,559.31392c-3.69978-11.48751-7.10108-24.22178-10.39673-36.56053-.87458-3.27477-1.73565-6.49673-2.58321-9.62533l-17.25337-63.96804c1.53543,1.02567,3.12369,2.12627,4.15918,2.84362l17.3111,12.0679,39.21622,26.95056c.80825.56443,2.01449,1.44638,3.43323,2.48372,7.33446,5.36296,13.6236,9.8495,16.29157,10.4299,9.52706,2.07222,20.3574,3.66109,30.83029,5.19714,5.17871.75973,10.15721,1.48999,14.90477,2.262-7.05563,3.32698-14.35938,7.0458-21.47029,10.66574-2.7429,1.39663-5.44649,2.77361-8.08007,4.099-19.2912,9.24823-39.63877,19.58232-59.31567,29.57615l-7.04703,3.57818Z"/><path class="cls-1" d="M170.04425,476.4281c-27.05558-17.82578-125.49657-84.25604-149.4948-100.59429.5589-.00491,1.14236-.00737,1.75162-.00737,2.8989,0,5.99802.05405,9.00993.10687,2.86942.05036,5.66023.09888,8.12675.09888.62032,0,1.22098-.00307,1.79707-.00983,3.1851-.03808,6.38372-.05343,9.58357-.05343,7.30253,0,14.76596.0823,21.98373.16153,7.23497.07923,14.7156.16153,22.05129.16153,4.67141,0,8.90306-.03255,12.89519-.10011,14.84458,24.82306,30.83152,50.213,46.29764,74.77749,5.26961,8.36873,10.67925,16.96041,15.998,25.45873Z"/><path class="cls-1" d="M357.34022,774.38773c-16.02256-.16583-31.90633-.18917-45.60486-.18917-5.46492,0-27.28651.01597-32.72318.01597l-7.50275-.00369c-3.75383-6.24246-7.88476-12.66672-11.88795-18.88953-2.40633-3.74277-4.80038-7.4659-7.10108-11.12883l-44.74624-71.08201c2.39896,1.60422,4.86671,3.3104,6.39232,4.36555.83773.57855,1.52929,1.05638,1.99361,1.37206l31.41253,21.29095c14.13337,9.60322,28.63646,19.3391,42.66296,28.75316,22.11885,14.84704,44.94032,30.16576,67.10462,45.49553Z"/><path class="cls-1" d="M116.31511,543.91658c-4.89988-7.17109-11.65579-17.46833-15.3003-23.02169-2.00589-3.05859-3.5794-5.45755-4.35695-6.61158L8.47603,382.74081c3.88035,2.61454,8.32083,5.69585,10.90773,7.49108,1.29836.90099,2.34123,1.62449,2.97014,2.05441l41.80189,28.57873c2.14224,1.46235,4.32255,2.9898,6.52498,4.5326,5.47229,3.83183,11.12146,7.78895,16.6785,11.10856,6.80996,26.82772,14.40974,54.45817,21.76263,81.18762,2.41247,8.77163,4.82004,17.52115,7.1932,26.22276Z"/><path class="cls-1" d="M370.79922,768.10596c-3.00577-2.07222-6.00171-4.10882-8.9436-6.10734-3.40129-2.31298-6.8075-4.62841-10.22108-6.99175l-59.43973-40.74306c-1.64967-5.03868-3.26126-11.01459-4.82249-16.80256-.6412-2.37685-1.2652-4.6886-1.86586-6.83821l-13.00574-46.77547-8.44612-30.11048c-.30586-1.08463-.66822-2.33018-1.05515-3.6617-.33043-1.13499-.68173-2.34123-1.03181-3.56466,1.38803,2.11644,2.81906,4.34221,4.07811,6.30019,1.56246,2.42967,2.91118,4.52769,3.74032,5.74621,5.20574,7.63664,10.47903,15.49192,15.58036,23.08679,3.19002,4.75248,6.37881,9.49881,9.56514,14.21935l56.62559,83.89613,15.5128,22.91728c.43606.64365.96671,1.41137,1.55017,2.25647.65717.95074,1.41014,2.04151,2.17909,3.17282Z"/><path class="cls-1" d="M244.7806,499.79434c-2.80309-.51775-5.93046-.97776-8.97431-1.4255-1.73811-.25611-3.43323-.50546-4.98709-.75421-9.40423-1.58825-19.00008-3.1286-28.50749-4.57559-1.01707-.24997-2.93207-.53802-4.72914-.79413,11.07232-17.31171,22.69495-34.78189,33.95152-51.70299,12.07343-18.14761,24.5129-36.8449,36.36645-55.48753-4.41222,24.56326-19.61917,98.086-23.11996,114.73994Z"/><path class="cls-1" d="M101.45456,763.44438c2.54882-12.09185,8.89938-40.80079,24.30531-107.9656l.11178-.48888c12.04272-.4029,24.84087-1.27134,37.23367-2.11153,4.28693-.29112,8.53456-.57855,12.69743-.84387-2.0452,3.33251-6.17367,9.29982-8.43383,12.56477-1.29222,1.86832-2.33632,3.37673-2.82151,4.12111-10.57239,16.21173-21.57469,32.5684-32.21464,48.38583-10.1916,15.15167-20.68906,30.75659-30.8782,46.33818Z"/><path class="cls-1" d="M269.8524,441.06336c1.36469-6.86339,2.66674-13.7882,3.93317-20.52507,1.51701-8.06103,3.08438-16.3966,4.74265-24.54177.19531-.96241.50239-2.62621.86844-4.60876.81808-4.42574,2.12381-11.49979,2.90504-14.38149l77.22743.2426c-8.23361,6.15771-17.48307,12.57889-26.47334,18.82013-6.36407,4.41775-12.37437,8.59106-18.05548,12.67962l-45.14791,32.31475Z"/><path class="cls-1" d="M87.06079,773.06971c-19.30348-.43115-39.6658-.468-57.31224-.468l-17.93142.00491c1.19395-.81808,2.4481-1.64721,3.631-2.42967,1.21729-.80457,2.38177-1.57351,3.37918-2.26262l20.28493-14.06581c20.36969-13.96508,40.85484-28.15864,60.942-42.2269-1.68775,9.84643-7.43396,36.03357-10.4471,49.7665-1.10183,5.02148-2.01817,9.20032-2.54636,11.68158Z"/><path class="cls-1" d="M763.78933,537.12136c-14.01913-2.81537-29.11061-6.54586-43.73163-10.15966-4.38397-1.0834-8.70653-2.15206-12.92222-3.17651-12.1459-16.21664-24.67259-34.31757-36.79392-51.83503-6.37021-9.20401-12.94678-18.70712-19.28137-27.66054l2.36211-14.1954c6.74854-40.59013,13.71204-82.47923,21.28972-121.74029,2.8903,3.67214,7.07037,9.22059,12.50581,16.60419.78737,1.06928,1.41506,1.92175,1.81918,2.46406,19.67321,26.21416,39.25798,53.00381,58.21876,79.63499l54.33963,73.61486c-5.38999,9.0259-13.20474,20.34143-20.77995,31.3118-4.29553,6.21851-8.35153,12.09369-11.72335,17.20485l-5.30278,7.93267Z"/><path class="cls-1" d="M473.96321,681.46816c-26.34805-5.91818-55.54096-11.03916-83.81752-15.99677-11.04653-1.93833-21.48134-3.76734-31.70119-5.63443-6.79276-1.12025-13.63834-2.3486-20.45321-3.66785,5.85553-6.77311,11.86338-13.41355,17.57642-19.67198,23.5941-25.83952,47.32209-52.4013,70.26762-78.0885,24.41218-27.32827,49.5847-55.50718,74.77197-83.01295-2.34246,18.15006-5.06325,39.47417-7.91793,61.83747-6.45742,50.60546-13.74398,107.71747-18.72616,144.23501Z"/><path class="cls-1" d="M586.49826,715.01432c-3.70961-8.78023-8.0727-18.21025-12.33138-27.41426-2.23191-4.82495-4.40117-9.51109-6.36652-13.87664l-52.84351-118.47288c33.2919-27.90191,69.44339-56.68823,104.43042-84.54838l7.60838-6.06005c-.02702,4.68307-.28989,11.96595-.78737,21.7915-.07493,1.47095-.13266,2.60348-.15846,3.24407l-1.97641,51.85346c-.08476,2.40633-.14249,4.93304-.20268,7.54205-.27146,11.77494-.57855,25.12093-3.49833,35.05704-5.96486,20.30336-11.12146,41.8412-16.10855,62.66906-5.44404,22.73548-11.04776,46.14042-17.76559,68.21505Z"/><path class="cls-1" d="M974.17577,639.91562c-9.04555-10.52325-18.98657-20.89173-28.62541-30.94453-8.17834-8.52842-16.63428-17.34795-24.37533-26.09624-11.1018-12.54388-24.96371-22.1078-38.36989-31.35725-3.10526-2.14224-6.21052-4.28448-9.28139-6.46234-20.35372-14.51293-41.2258-29.16465-62.09051-43.58484,2.22454-2.86573,4.43065-5.92002,6.58394-8.90061.33534-.46493.66945-.92679,1.0011-1.38435,1.49121.38632,3.04262.85493,4.56208,1.3131,1.0097.30524,2.00712.60619,2.97629.88073,23.22928,6.59131,46.6772,13.93069,69.35495,21.02869,13.98351,4.3766,28.44239,8.90306,42.71824,13.21211l4.86303,1.46173c10.04911,3.01682,20.40408,6.12454,30.07977,9.66218-2.65937,7.9818-5.44404,16.05573-8.14763,23.89627-1.17921,3.42095-2.35843,6.83944-3.52659,10.24933l-1.05392,3.07455,2.88539,1.49858c11.19762,5.81254,22.41243,12.93573,33.25874,19.82553l6.48199,4.11619.56381-6.15279c.39061-4.25622,1.31188-9.0001,2.20243-13.58798.20145-1.03673.80334-4.19235.80334-4.19235l-.45572-1.05884c-5.1566-11.98376-9.36246-23.87785-13.81522-36.46964l-1.6337-4.61367c2.45424-8.24344,4.85197-16.60971,7.15512-24.97599,7.41185,10.33654,14.97847,20.69028,22.5586,30.86714l3.15071,4.74388c-2.66306,10.60555-5.00674,21.48748-7.27673,32.02793-2.03414,9.44599-4.1383,19.21381-6.45005,28.67577-.27146,1.1092-.51836,2.2098-.76403,3.3018-.62277,2.78098-1.21484,5.42684-2.19506,7.97197-2.30315,1.50473-4.63087,3.01682-6.96842,4.53629-8.7053,5.65654-17.67592,11.48628-26.16994,17.43762Z"/><path class="cls-1" d="M592.94954,876.49657c-14.53872-11.25412-33.93556-26.90327-43.5007-34.62097-4.36063-3.51676-7.69683-6.2093-9.37352-7.53468-63.97234-49.73824-128.2493-100.61517-191.24878-151.3754,17.57397,3.40129,35.5668,6.52867,52.96634,9.55286,24.50062,4.25868,49.81686,8.65985,74.39241,13.89875,15.60984,22.46525,31.46166,45.91194,46.80249,68.59952,22.77848,33.68743,46.20797,68.33788,69.96176,101.47992Z"/><path class="cls-1" d="M511.53099,431.71318c-4.60507-4.89926-9.21506-9.86056-13.69607-14.68428-7.11827-7.66059-14.4773-15.58159-21.85353-23.29131-4.53137-4.90111-9.4767-10.105-14.25866-15.13815-7.96583-8.38101-16.16014-17.0034-23.51303-25.33405l129.47519-36.2473c8.4019-2.37624,16.86767-4.82618,25.36169-7.2841,14.18373-4.10391,28.7593-8.32144,43.10885-12.20793-18.48663,20.75232-69.86103,75.63795-99.80937,107.63456-10.86596,11.60911-19.8808,21.23936-24.81508,26.55257Z"/><path class="cls-1" d="M979.18989,512.97635c-1.61159-1.78049-3.4578-4.31273-4.34712-5.53309-.81931-1.1221-1.52561-2.09188-2.13855-2.83134l-28.4473-34.0934-53.50313-64.45999c-2.53162-3.04016-5.12467-6.09936-7.74473-9.18927-15.84568-18.69053-32.23061-38.01797-40.81307-59.89668-1.54403-3.9344-2.26016-16.29956-2.64463-22.94246-.09581-1.65397-.18057-3.11325-.26287-4.26359-1.04901-14.48836-1.94079-29.16097-2.65937-43.74882,15.29784,15.7554,52.71085,55.9328,58.25929,63.2212,1.94693,2.55865,4.2857,13.53577,6.16508,22.35531,2.42599,11.38187,4.93304,23.15066,8.34294,29.20519,3.91474,6.94999,8.89815,14.03326,13.71573,20.88375,2.66183,3.78208,5.1738,7.35473,7.47572,10.84754,7.23619,10.98327,15.39488,22.35531,23.28455,33.35209,10.495,14.62778,21.3364,29.74075,30.28368,44.30158-1.26151,6.71722-2.82397,13.49463-4.33852,20.0626l-.62769,2.72939Z"/><path class="cls-1" d="M323.39361,507.11283c25.69334-38.55537,52.82385-77.83608,79.13383-115.92898,5.80149-8.40005,11.58209-16.77001,17.32216-25.09514,4.57928,4.64008,12.00955,12.8221,16.87381,18.17831,2.06731,2.27551,3.79314,4.17577,4.87285,5.3384l46.91059,50.33399c-26.69199,10.36848-54.2082,21.67358-80.87317,32.62859-13.63097,5.60004-27.72503,11.39047-41.36583,16.91312-10.45938,4.16778-21.1718,8.61993-31.53168,12.92651-3.7354,1.55202-7.53345,3.13106-11.34256,4.70518Z"/><path class="cls-1" d="M563.07982,796.52869c-8.69424-11.88917-30.42002-44.18611-45.64785-66.82333-10.32917-15.35557-19.36981-28.79615-23.15681-34.15789.82913-5.50791,1.50104-11.16936,1.94693-15.07428,1.41014-12.30558,2.96646-24.85684,4.47118-36.99537,2.28227-18.41416,4.62841-37.34053,6.55938-56.14776,9.26174,19.71498,28.12301,61.95907,42.81774,94.86896,12.68392,28.40922,23.73536,53.15919,27.83435,61.80062-4.35818,14.15916-8.46454,29.21624-12.43947,43.79304-.79965,2.93207-1.59439,5.84693-2.38545,8.73601Z"/><path class="cls-1" d="M387.39788,344.85796c22.71706-16.45617,45.89843-32.85707,68.46809-48.8262,21.76386-15.39856,44.25613-31.31242,66.10106-47.11142,4.75248,1.01523,21.27129,6.40829,27.01136,8.28275,2.12873.69524,3.787,1.23633,4.66772,1.5121,22.83007,7.2276,45.98442,14.4423,68.99628,21.50038-11.83513,3.00945-24.03385,6.39109-35.93899,9.69166-4.28939,1.18904-8.51736,2.3615-12.64338,3.49158l-115.07282,31.79147-.10441.03562c-7.95109,2.70298-18.04565,5.29479-26.9524,7.58197-2.84117.72964-5.60372,1.43901-8.20659,2.1275-12.08325,3.1157-24.23898,6.43654-36.32592,9.92259Z"/><path class="cls-1" d="M326.7298,634.67917c7.86757-26.00289,26.80131-83.35443,34.99685-108.17933,2.12995-6.45251,3.7784-11.44758,4.7058-14.28507,21.78843-9.03081,44.30281-17.82271,66.09492-26.3327,14.99198-5.85492,30.37826-11.86338,45.58643-17.97195-9.72237,10.86166-24.58292,27.0089-30.85117,33.82009-2.37685,2.58199-4.11865,4.47487-4.88391,5.31567-38.67329,42.12925-77.53329,85.01577-115.64891,127.63328Z"/><path class="cls-1" d="M958.19006,516.13996c-2.93207-.97592-5.85308-1.96904-8.73355-2.94803-1.98747-.67621-3.96879-1.34934-5.94152-2.01388-50.35856-17.2288-88.58473-29.63388-119.77247-38.86307,6.34687-16.98436,12.25891-34.61852,17.98792-51.71097,3.51676-10.48947,7.13424-21.28112,10.82788-31.84307,8.16728,9.15979,24.33725,28.95031,31.97266,38.46754,10.4041,12.96705,21.84247,26.4629,32.90374,39.51409,13.78697,16.26701,27.96701,32.99894,40.75534,49.39738Z"/><path class="cls-1" d="M533.00619,437.71489c4.58296-5.25364,12.84483-14.13337,24.70821-26.5538,1.57965-1.65336,2.77852-2.90873,3.41112-3.5837l93.90348-100.19446c-1.32662,6.58271-3.03647,14.48099-4.29062,20.27449-.92372,4.27219-1.69635,7.83931-2.09188,9.81695l-18.73598,94.86466c-12.08203.59513-24.72909,1.44085-36.99046,2.26139-19.96433,1.3346-40.52932,2.71035-59.91388,3.11447Z"/><path class="cls-1" d="M628.07536,889.96048c-3.52167-4.94041-7.31972-10.61169-10.81437-15.83217-1.94325-2.90259-3.78331-5.64917-5.41701-8.03339-11.20744-16.26332-22.5672-32.92831-33.7857-49.56382,6.44268-21.44449,12.48492-43.28696,17.98055-64.99678l52.86807-6.76574c-1.4777,17.2632-12.51686,90.20738-18.0739,126.919-1.10306,7.28779-2.04151,13.49217-2.75764,18.2729Z"/><path class="cls-1" d="M673.84482,261.31744c-.25304-13.86804.26901-45.37884.46677-57.2631.04791-2.89829.08598-5.2346.10809-6.77864,3.52659-3.95159,7.28779-8.32021,10.93966-12.70848,10.2825-12.35595,21.30569-24.6904,31.96406-36.61888,11.02319-12.33445,22.3547-25.0153,33.06343-37.93137-1.91622,23.87048-8.83673,83.50122-10.70013,97.52895-14.52521,12.71585-32.04636,26.71901-49.00369,40.27076-5.85799,4.68123-11.47645,9.17146-16.83819,13.50077Z"/><path class="cls-1" d="M650.60326,621.31721c-.64734-3.70101-1.51701-8.04076-2.43827-12.63601-2.48003-12.36577-5.28926-26.38122-5.32489-35.21672-.0823-20.88314.76772-42.75263,1.58825-63.90293.46432-11.93155.93969-24.17633,1.24554-36.2123,3.88526,5.62767,8.53947,12.7177,10.8979,16.31184,1.36347,2.07652,2.48126,3.77901,3.18756,4.82986l31.84491,47.01316c-2.09925,6.47708-4.62227,13.37916-7.28164,20.64975-4.71071,12.88414-9.58111,26.20556-12.23066,37.79257-3.8349,16.77308-6.21912,38.25197-8.32205,57.20168-.73578,6.63185-1.43102,12.89519-2.15575,18.71756-.23093,1.84498-.4766,3.70961-.7321,5.58407l-10.27881-60.13252Z"/><path class="cls-1" d="M653.9677,268.82387c-37.70167-13.29563-75.99786-26.44509-113.91326-39.1112l-29.31083-9.95023c47.72007-5.16827,95.87252-10.67004,143.39482-16.3837.28006,7.75886.22724,29.301-.15723,64.26161-.00491.40904-.00983.80395-.01351,1.18351Z"/><path class="cls-1" d="M779.49867,334.24136c-1.8892-19.68181-4.94901-40.32665-7.91301-60.33397-2.65692-17.92466-5.39367-36.38856-7.2927-54.18609,1.31065.6891,2.66429,1.3997,4.04986,2.1275,16.32719,8.57018,36.48438,19.15117,49.20146,26.94503,1.26643,13.77039,5.44281,68.4036,5.67497,81.04268-12.66303.92556-28.68805,2.54268-43.72057,4.40485Z"/><path class="cls-1" d="M668.79877,749.74708c3.5401,2.4874,7.74596,5.63811,11.13251,8.17465,1.63984,1.22835,3.11386,2.33263,4.27956,3.18756,11.58209,8.38347,23.12364,16.94014,34.37039,25.47961l-56.80861,90.9665c-4.58665,7.06545-9.16716,14.28077-13.69116,21.55995l20.71731-149.36828Z"/><path class="cls-1" d="M761.03415,325.05332c-8.4498-5.45816-21.09687-12.75823-30.30087-18.07022-3.20599-1.84989-5.9452-3.43077-7.85283-4.55717-7.56048-4.54427-15.40102-8.86805-22.98484-13.04935-5.78306-3.18879-11.72335-6.46418-17.56046-9.85073,2.92715-2.46714,6.27808-5.13941,9.55286-7.75087,2.41247-1.92421,4.73405-3.77594,6.73012-5.42315,16.18593-13.3116,32.69124-26.69813,49.13144-39.84882,2.77238,17.46034,9.73097,70.73746,13.28458,98.55032Z"/><path class="cls-1" d="M511.6354,532.40451c3.49833-22.84603,6.283-48.52341,8.77654-71.52237l.21987-2.02616,84.58523-4.55164c1.88551-.12591,3.85333-.21865,5.84202-.29603-4.31764,3.43876-9.22857,7.16618-13.7882,10.62705-3.73295,2.83257-7.25831,5.50852-10.15352,7.79264-24.465,19.01666-49.22725,38.68189-73.57924,58.43249l-1.90271,1.54403Z"/><path class="cls-1" d="M601.47304,730.0493c2.70973-10.46921,5.40841-21.0158,8.11446-31.59555,7.03106-27.48305,14.26357-55.75715,21.89529-83.28441.79351,4.43433,1.57351,9.01976,2.15084,12.42105.61049,3.59414,1.12025,6.5864,1.43102,8.22379,2.27367,11.96656,4.38889,24.28689,6.43408,36.20308,2.92715,17.04823,5.94643,34.63571,9.52706,51.78222-5.27575.77263-10.74927,1.43348-16.07661,2.07468-5.17134.624-10.51588,1.26765-15.6516,2.01203-5.91449.64857-11.88672,1.37329-17.82455,2.16312Z"/><path class="cls-1" d="M870.92948,591.29517c-24.13703-12.39894-58.67447-30.3279-87.64136-46.70546,6.18473-9.20401,11.84495-18.29132,17.69435-27.75574,9.08486,6.35793,18.64877,12.90502,27.93139,19.25926,18.71756,12.81166,38.03578,26.03605,55.34811,38.98775-1.15833,1.41628-2.496,3.08561-3.93685,4.88268-2.92838,3.65679-7.07037,8.82445-9.39563,11.33151Z"/><path class="cls-1" d="M789.78116,431.50805c-21.79948-28.88029-66.89949-90.57036-86.92032-118.58343,1.84375,1.11411,3.66907,2.22822,5.38753,3.276,2.28841,1.39602,4.37292,2.66736,6.04101,3.66048,16.24735,9.60875,32.60034,19.52643,48.63273,29.49324,2.02309,5.13019,4.38152,12.72568,6.47953,19.48159,1.13376,3.65188,2.20488,7.10169,3.16177,9.97848,5.92309,17.4192,11.69018,35.06809,17.21775,52.69365Z"/><path class="cls-1" d="M810.23929,221.25427c-6.11349-3.46455-12.81535-6.93341-19.3391-10.31075-2.49846-1.29284-4.93796-2.55558-7.25708-3.7741l-15.16886-8.08191c2.17663-2.24235,4.52646-4.7666,7.17723-7.70604,10.21494-11.33396,21.05756-22.51745,31.54396-33.33305,7.40079-7.63357,14.98952-15.4606,22.41366-23.39756-1.13622,5.46185-2.59058,11.70677-3.79191,16.86337-.66208,2.83933-1.25169,5.37156-1.68038,7.31051l-13.89752,62.42953Z"/><path class="cls-1" d="M812.86059,449.7097c-1.99975-7.05133-4.26237-14.12968-6.47585-21.05817-1.89657-5.93476-3.85701-12.07158-5.57178-17.9523-4.7537-16.30815-9.64376-33.0794-14.67998-49.97962,1.98747,1.56246,4.09163,3.27662,6.16999,4.96867,6.32353,5.15108,12.86325,10.47719,18.09479,13.36381l.83896.46247.95811.00676c8.65616.05957,17.4106.28068,26.08887.65839l-21.20496,57.48482-4.21815,12.04518Z"/><path class="cls-1" d="M946.46057,645.30192c-2.05011-.16091-3.88895-.29849-5.62583-.42746-18.26307-1.36715-24.69715-1.84866-42.7514-9.59462-3.97125-8.44857-9.65972-21.60909-12.9173-30.26525,3.53273-4.56945,7.06177-9.26174,10.48763-13.81522.72227-.95934,1.44331-1.91868,2.16435-2.87556,3.11509,2.98734,7.79509,7.9732,10.41147,10.76032,1.26151,1.34381,2.31666,2.46775,3.00331,3.17528,13.75012,14.17636,26.4758,28.49766,39.65843,43.49333l-4.43065-.4508Z"/><path class="cls-1" d="M672.73316,726.67503c2.26876-15.23765,4.28939-30.67061,6.24615-45.61714.79351-6.05821,1.60299-12.23311,2.4309-18.42521,2.54391,7.24971,5.35437,15.70074,6.83944,20.16087.72104,2.16803,1.29959,3.90983,1.66564,4.98341l24.62222,71.43577-41.80435-32.5377Z"/></svg>