<?xml version="1.0" encoding="UTF-8"?><svg id="Ebene_1" xmlns="http://www.w3.org/2000/svg" viewBox="0 0 1024 1024"><defs><style>.cls-1{fill:none;}.cls-2{fill:#fefefe;}.cls-3{clip-path:url(#clippath);}.cls-4{fill:#a62f24;}</style><clipPath id="clippath"><rect class="cls-1" y="-1.5208" width="1024" height="1024"/></clipPath></defs><g class="cls-3"><circle class="cls-4" cx="512" cy="512" r="512"/></g><path class="cls-4" d="M0,0h1024v1024H0V0Z"/><path class="cls-2" d="M343.29443,637.00781c-3.5415-2.47852-8.02832-5.89258-11.82715-8.78418-1.71582-1.30566-3.26562-2.48535-4.48486-3.3916-9.99512-7.33984-20.14844-14.71191-30.18555-21.91797-3.22363-2.29004-6.47754-4.66016-9.62402-6.95215-3.94629-2.87402-8.02686-5.84668-12.0791-8.68359l-.45166-.31641-.54932.05176c-10.08398.94824-21.40039,1.43848-32.34424,1.91309-2.18555.09473-4.34766.18848-6.47119.28516,6.06104-6.65332,12.61279-13.4834,18.97363-20.11426,2.43066-2.53418,4.83643-5.04199,7.18115-7.50488l46.05176-48.45801c.51318-.54004,1.56396-1.61621,2.94238-3.02783,14.09814-14.43799,19.26367-20.13086,19.74023-21.75488,1.67578-5.70801,4.15234-18.14453,6.3374-29.11719,1.16943-5.87256,2.27686-11.43457,3.08057-15.03027,2.01514-1.64697,4.85791-3.64014,7.38477-5.41162.89014-.62402,1.73438-1.21582,2.48096-1.74951l16.60547-11.96777,54.71045-39.4082c-4.84521,6.83447-12.61914,17.43945-15.86182,21.86328-1.27832,1.74365-2.22852,3.04004-2.66162,3.63818l-56.16211,77.70947c-10.46045,14.30957-21.02539,28.96436-31.39648,43.55029l-.41455.58301,29.0249,103.99609Z"/><path class="cls-2" d="M125.99463,688.85059c.64795-.90918,1.23096-1.71582,1.59277-2.21582.36963-.51172.66162-.91504.82861-1.15332l21.58594-30.5625,82.07373-116.06738c2.46729-3.41602,5.0957-4.64648,8.73389-6.34961.71045-.33301,1.44873-.67871,2.21875-1.05664l14.19678-6.94824,45.0332-22.29932c-3.43848,3.58936-6.87598,7.19092-10.29248,10.78076l-53.74805,56.34863c-1.44189,1.50488-3.0625,3.16992-4.76953,4.9248-5.51025,5.66406-11.75586,12.08398-16.1416,17.31055-.68018.81055-1.44531,3.11426-3.53613,12.95312l-5.77002,26.90918c-6.80273,5.00391-14.21191,10.11426-21.38232,15.06055-2.90283,2.00195-5.77979,3.98633-8.58447,5.94141l-52.03906,36.42383Z"/><path class="cls-2" d="M233.22656,524.86133c-2.94092-9.13477-5.64648-19.26123-8.26758-29.07324-.69482-2.60059-1.37842-5.15967-2.05176-7.64453l-13.71631-50.85596c1.22412.81689,2.48975,1.69434,3.31348,2.26562l13.75635,9.58887,31.17773,21.42627c.64209.44824,1.6001,1.14893,2.72656,1.97266,5.83252,4.26465,10.83301,7.83252,12.95361,8.29443,7.57471,1.64746,16.18408,2.91016,24.50977,4.13135,4.11768.604,8.07568,1.18457,11.85156,1.79883-5.60791,2.64355-11.4126,5.59912-17.06494,8.47705-2.18164,1.11084-4.33252,2.20605-6.42822,3.26074-15.30566,7.33789-31.44873,15.53662-47.06055,23.46533l-5.69971,2.89258Z"/><path class="cls-2" d="M260.95654,458.96436c-21.50879-14.17188-99.76904-66.98193-118.85205-79.97314.44629-.00391.91211-.00586,1.39844-.00586,2.30469,0,4.76758.04346,7.16113.08496,2.27979.04004,4.49707.07861,6.45752.07861.49365,0,.9707-.00244,1.4292-.00781,2.53223-.03027,5.07422-.04248,7.61865-.04248,5.80566,0,11.73926.06543,17.47803.12842,5.75146.06299,11.69873.12842,17.53125.12842,3.71338,0,7.07764-.02588,10.25195-.07959,11.81348,19.75488,24.53662,39.96191,36.8457,59.51025,4.17627,6.6333,8.46387,13.44238,12.68018,20.17822Z"/><path class="cls-2" d="M409.86084,695.85059c-12.75684-.13184-25.40918-.15137-36.32178-.15137-4.33398,0-25.94336.0127-25.94336.0127l-5.97119-.00293c-2.979-4.95215-6.25732-10.0498-9.43213-14.98633-1.91992-2.98633-3.83008-5.95605-5.66504-8.87891l-35.5752-56.51074c1.91602,1.28027,3.8877,2.64355,5.10645,3.48633.65479.45312,1.1958.82617,1.56104,1.0752l24.97412,16.92676c11.2417,7.63867,22.77783,15.38184,33.93359,22.87012,17.58057,11.80078,35.7168,23.97461,53.3335,36.15918Z"/><path class="cls-2" d="M218.24072,512.62012c-3.89551-5.69971-9.26514-13.88477-12.16064-18.29883-1.59619-2.43311-2.84863-4.3418-3.4668-5.25977l-70.10645-104.5791c3.08838,2.08105,6.62402,4.53467,8.68408,5.96436,1.02637.71191,1.85059,1.28369,2.34863,1.62451l33.2334,22.72119c1.69971,1.16064,3.42969,2.37256,5.17822,3.59717,4.35352,3.04834,8.84863,6.19678,13.26953,8.8374,5.41748,21.34229,11.46338,43.32324,17.3125,64.58789,1.91455,6.95947,3.82373,13.90137,5.70752,20.80518Z"/><path class="cls-2" d="M420.56006,690.85547c-2.40186-1.65625-4.7959-3.2832-7.14648-4.88086-2.69238-1.83008-5.38818-3.66211-8.08887-5.53223l-47.25586-32.39258c-1.31055-4.00293-2.5918-8.75195-3.83203-13.35059-.51074-1.8916-1.00732-3.73242-1.48535-5.44434l-10.34033-37.1875-6.71484-23.93848c-.24268-.8623-.53076-1.85156-.83838-2.90918-.2627-.90234-.54248-1.8623-.82031-2.83594,1.10498,1.68555,2.24414,3.45801,3.24707,5.01758,1.23975,1.92773,2.31055,3.59277,2.96875,4.55859,4.15576,6.09863,8.3667,12.36914,12.43896,18.43359,2.51904,3.75195,5.03613,7.5,7.55225,11.22656l45.01855,66.7002,12.33252,18.21973c.34619.50977.76611,1.11816,1.22803,1.78711.52344.75781,1.12402,1.62695,1.73633,2.52832Z"/><path class="cls-2" d="M320.37451,477.54297c-2.22754-.41113-4.71191-.77686-7.12891-1.13281-1.38477-.20361-2.73438-.40234-3.97168-.60059-7.48584-1.26416-15.11426-2.48828-22.66406-3.63721-.80859-.19873-2.33105-.42822-3.75879-.63184,8.80176-13.7627,18.04199-27.65137,26.99121-41.10352,9.59766-14.42627,19.48389-29.28711,28.90723-44.10645-3.43262,19.09424-15.05469,75.44971-18.375,91.2124Z"/><path class="cls-2" d="M206.42676,687.14941c2.02588-9.6084,7.07129-32.41797,19.30713-85.7627l.10547-.46094c9.56006-.31934,19.72021-1.00781,29.55908-1.67578,3.42188-.23145,6.8125-.46191,10.13623-.67285-1.62695,2.65039-4.91016,7.39551-6.70703,9.99219-1.02637,1.48438-1.85498,2.68164-2.24023,3.27344-8.40283,12.88379-17.146,25.88184-25.60156,38.45215-8.10693,12.05176-16.45508,24.46191-24.55908,36.85449Z"/><path class="cls-2" d="M340.30566,430.8501c1.08545-5.45703,2.12061-10.96094,3.12793-16.31738,1.20508-6.40869,2.45166-13.03564,3.77002-19.51123.15479-.7627.39795-2.07861.6875-3.64648.65088-3.52393,1.69092-9.15674,2.3125-11.45117l61.39746.19287c-6.54639,4.89502-13.89893,10-21.04688,14.96191-5.05908,3.5127-9.83789,6.83008-14.35449,10.08105l-35.89404,25.69043Z"/><path class="cls-2" d="M194.98242,694.80176c-15.35303-.3418-31.50244-.37109-45.49219-.37109l-14.32764.00391c.95312-.65332,1.95508-1.31543,2.8999-1.93945.96338-.6377,1.88379-1.24609,2.67334-1.79102l16.12744-11.18359c16.11182-11.04492,32.39941-22.33105,48.44971-33.57031-1.34277,7.83496-5.91797,28.68555-8.31738,39.61914-.87061,3.9668-1.59521,7.26953-2.01318,9.23242Z"/><path class="cls-2" d="M733.99707,507.21777c-11.14453-2.2373-23.1416-5.20264-34.76562-8.07568-3.48535-.86133-6.92383-1.71143-10.27637-2.52539-9.65332-12.89014-19.60938-27.27734-29.24414-41.20117-5.06641-7.3208-10.29688-14.87891-15.33594-22.00049l1.85547-11.15186c5.37207-32.31396,10.91602-65.66357,16.94824-96.91992,2.29883,2.9209,5.62207,7.33301,9.94531,13.20605.62402.84766,1.12109,1.52344,1.44238,1.9541,15.63867,20.83691,31.20996,42.13525,46.28516,63.31104l43.20117,58.52588c-4.28516,7.17578-10.49805,16.17236-16.52148,24.89404-3.41406,4.94434-6.63965,9.61426-9.31934,13.67725l-4.21484,6.30615Z"/><path class="cls-2" d="M503.5791,621.97754c-20.95898-4.70898-44.1792-8.78027-66.67139-12.72461-8.77051-1.53809-17.05469-2.99121-25.16895-4.47266-5.40479-.8916-10.84619-1.86816-16.26074-2.91699,4.65186-5.38086,9.42969-10.66016,13.97363-15.63867,18.75684-20.54199,37.61963-41.6582,55.86133-62.0791,19.40869-21.72705,39.42236-44.13184,59.44775-66.00049-1.85645,14.38574-4.01172,31.2793-6.27344,49-5.14111,40.2915-10.94336,85.76318-14.9082,114.83252Z"/><path class="cls-2" d="M593.0459,648.64648c-2.95312-6.99023-6.42676-14.49805-9.81836-21.82617-1.76953-3.8252-3.48828-7.53906-5.04688-11l-42.01074-94.18848c26.47656-22.19043,55.22852-45.08496,83.05469-67.2417l6.01855-4.79395c-.02148,3.72314-.23047,9.51318-.62598,17.3252-.05957,1.16895-.10547,2.06885-.12598,2.57812l-1.57129,41.22461c-.06738,1.9165-.11426,3.93018-.16211,6.0083-.21582,9.35742-.45996,19.96387-2.78027,27.85938-4.74316,16.14258-8.84375,33.26758-12.80859,49.82812-4.32715,18.07227-8.7832,36.67969-14.12305,54.22656Z"/><path class="cls-2" d="M901.25879,588.94238c-7.19238-8.36914-15.09961-16.61426-22.76465-24.6084-6.49902-6.77832-13.21973-13.78711-19.37402-20.74023-8.82617-9.97559-19.85059-17.58105-30.51172-24.93555-2.46582-1.70117-4.93164-3.40234-7.37012-5.13184-16.20117-11.55273-32.79785-23.20215-49.36426-34.65088,1.77246-2.28174,3.52832-4.71338,5.24316-7.08691.26367-.36572.52734-.72949.78809-1.09033,1.18164.30615,2.41211.67773,3.61523,1.04102.80762.24365,1.60449.48389,2.37891.70361,18.46582,5.23926,37.10742,11.07422,55.13574,16.71729,11.11816,3.47998,22.61426,7.07812,33.96387,10.50439l3.88086,1.16699c7.98438,2.39697,16.21191,4.86621,23.89844,7.67676-2.10742,6.32568-4.31348,12.72412-6.45605,18.93701-.94434,2.74023-1.88867,5.47754-2.82422,8.20898l-.83789,2.44434,2.29395,1.19043c8.89355,4.61816,17.80273,10.27734,26.41895,15.75l5.1748,3.28613.44824-4.8916c.31055-3.38965,1.04492-7.16602,1.75488-10.81934.15918-.81836.63574-3.31641.63574-3.31641l-.3623-.8418c-4.09863-9.52344-7.44043-18.97461-10.97852-28.98096l-1.30371-3.68115c1.95508-6.56885,3.86035-13.2207,5.68848-19.85645,5.90723,8.23828,11.92188,16.46875,17.93457,24.53906l2.50391,3.77148c-2.11621,8.43262-3.98047,17.08496-5.78516,25.46484-1.61719,7.50977-3.28906,15.27539-5.12695,22.79688-.21582.88086-.41211,1.75488-.60645,2.62305-.49609,2.21191-.9668,4.31543-1.74707,6.33984-1.82227,1.19043-3.66406,2.3877-5.51367,3.58984-6.92871,4.50195-14.07031,9.14355-20.83105,13.87988Z"/><path class="cls-2" d="M598.17676,777.0293c-11.5459-8.93652-26.94043-21.35645-34.53418-27.4834-3.49219-2.81641-6.16406-4.97266-7.50391-6.03125-50.91406-39.58691-102.01465-80.03418-152.04541-120.34668,13.97168,2.7041,28.27588,5.19043,42.10986,7.59473,19.47803,3.38574,39.60498,6.88477,59.14307,11.0498,12.40771,17.85938,25.01025,36.49707,37.20459,54.53223,18.10938,26.7832,36.73828,54.33398,55.62598,80.68457Z"/><path class="cls-2" d="M533.44531,423.4165c-3.66016-3.89404-7.32227-7.83594-10.88477-11.66992-5.65918-6.09131-11.51172-12.39014-17.37793-18.521-3.60303-3.89795-7.53613-8.03711-11.33984-12.03955-6.33057-6.66162-12.84424-13.51562-18.68848-20.13721l102.93555-28.81738c6.6748-1.88818,13.40039-3.83398,20.14844-5.78711,11.28125-3.26416,22.87305-6.61816,34.28613-9.70947-14.70508,16.50781-55.5752,60.17188-79.39941,85.62402-8.61621,9.20508-15.76367,16.84131-19.67969,21.05762Z"/><path class="cls-2" d="M905.24512,488.02295c-1.28027-1.41504-2.74805-3.42676-3.45508-4.39648-.65137-.89355-1.21484-1.66553-1.70312-2.25391l-22.61523-27.10449-42.53613-51.24756c-2.01465-2.41895-4.07812-4.854-6.16309-7.31299-12.5957-14.85742-25.62012-30.22021-32.44141-47.61133-1.22559-3.125-1.7959-12.94775-2.10156-18.2251-.07715-1.32129-.14453-2.48682-.20996-3.40479-.83398-11.52637-1.54297-23.19189-2.11328-34.78174,12.16211,12.52686,41.90723,44.46973,46.31543,50.2627,1.54883,2.03467,3.40918,10.76123,4.90332,17.77393,1.92871,9.04834,3.92188,18.40479,6.63281,23.21826,3.11328,5.52539,7.07422,11.15771,10.90625,16.604,2.11426,3.00684,4.1123,5.84668,5.94141,8.62256,5.75391,8.73389,12.24121,17.77686,18.51562,26.52197,8.3418,11.62744,16.95996,23.64062,24.07129,35.21436-1.00293,5.34229-2.24512,10.73242-3.4502,15.95654l-.49707,2.16406Z"/><path class="cls-2" d="M383.87305,483.36133c20.41699-30.63965,41.97949-61.85889,62.8877-92.13086,4.62109-6.69043,9.22412-13.35596,13.79639-19.98682,3.63428,3.68359,9.52979,10.17432,13.38965,14.42383,1.6543,1.82178,3.03662,3.34375,3.90039,4.27295l37.29346,40.0166c-21.22412,8.24414-43.10498,17.23389-64.30811,25.94531-10.83203,4.4502-22.0332,9.05225-32.87354,13.44092-8.31445,3.31299-16.83057,6.85254-25.06641,10.27588-2.97021,1.23438-5.99072,2.49023-9.01953,3.74219Z"/><path class="cls-2" d="M574.42773,713.45215c-6.91113-9.45117-24.17773-35.12012-36.2793-53.11035-8.21777-12.21484-15.40918-22.90625-18.4209-27.1709.64453-4.27344,1.16113-8.60547,1.54785-11.98438,1.12109-9.78516,2.3584-19.76562,3.55469-29.41797,1.81445-14.6377,3.67969-29.68262,5.21484-44.63281,7.3623,15.6709,22.35449,49.25098,34.03516,75.41211,10.08691,22.59082,18.87402,42.27246,22.13379,49.14355-3.45898,11.23926-6.71875,23.19238-9.875,34.76465-.63965,2.34766-1.27637,4.68262-1.91113,6.99609Z"/><path class="cls-2" d="M434.75781,354.36475c18.06299-13.08447,36.49463-26.12549,54.44043-38.82275,17.30078-12.24072,35.17969-24.89062,52.54492-37.44971,3.77832.80713,16.91113,5.09473,21.47461,6.58496,1.69238.55273,3.01074.98291,3.71094,1.20215,18.15234,5.74658,36.55762,11.48193,54.85449,17.09326-9.40527,2.39209-19.09961,5.0791-28.56152,7.70215-3.41406.94629-6.78027,1.87939-10.06445,2.7793l-91.48486,25.2749-.08252.02832c-6.31787,2.14746-14.33887,4.20752-21.41602,6.02441-2.26318.58154-4.46338,1.14648-6.53711,1.69482-9.60742,2.47754-19.271,5.11719-28.87891,7.88818Z"/><path class="cls-2" d="M386.52539,584.7793c6.25049-20.65918,21.28613-66.20605,27.79443-85.92188,1.70703-5.16992,3.02832-9.17236,3.76953-11.44043,17.31787-7.17773,35.21533-14.16699,52.53564-20.93066,11.92236-4.65576,24.15869-9.43408,36.25293-14.29199-7.72998,8.63574-19.54541,21.47461-24.52979,26.89014-1.8877,2.05127-3.27148,3.55518-3.87939,4.22314-30.75098,33.49902-61.64453,67.59375-91.94336,101.47168Z"/><path class="cls-2" d="M888.5498,490.53857c-2.34473-.78125-4.68262-1.57617-6.98633-2.35938-1.56543-.53223-3.12598-1.06299-4.67969-1.58643-40.0332-13.6958-70.4248-23.55811-95.22266-30.89697,5.04297-13.49561,9.73926-27.50635,14.29297-41.08789,2.79785-8.34668,5.67676-16.93408,8.61621-25.33887,6.49023,7.28027,19.34668,23.01465,25.41895,30.58252,8.27148,10.30859,17.36426,21.0376,26.15723,31.41309,10.96094,12.93311,22.23535,26.23584,32.40332,39.27393Z"/><path class="cls-2" d="M550.51855,428.18799c3.64258-4.17529,10.20801-11.23145,19.63379-21.10059,1.26074-1.31934,2.2168-2.32129,2.72168-2.85938l74.65625-79.65625c-1.05664,5.24072-2.41895,11.53271-3.41699,16.14648-.73242,3.38379-1.34375,6.20801-1.6582,7.77588l-14.89551,75.42041c-9.60645.47314-19.66309,1.14551-29.41211,1.79785-15.87109,1.06104-32.21973,2.1543-47.62891,2.47559Z"/><path class="cls-2" d="M626.10059,787.73242c-2.80078-3.92871-5.82129-8.43945-8.60059-12.59082-1.54297-2.30566-3.00488-4.4873-4.30273-6.38184-8.95215-12.99121-17.9834-26.23926-26.86035-39.4043,5.12207-17.04883,9.92578-34.41406,14.29492-51.67383l42.03027-5.37891c-1.1748,13.72559-9.95117,71.71777-14.36914,100.90527-.87695,5.79297-1.62305,10.72461-2.19238,14.52441Z"/><path class="cls-2" d="M662.48926,287.94824c-.20117-11.01465.21289-36.02148.36914-45.45361.03809-2.3374.06934-4.22021.08691-5.46094,2.80176-3.1377,5.79199-6.61133,8.69824-10.10352,8.17578-9.82373,16.93945-19.63037,25.41406-29.11426,8.7627-9.80566,17.77148-19.88672,26.28418-30.15479-1.52344,18.97754-7.02539,66.38525-8.50684,77.5376-11.54688,10.1084-25.47559,21.23975-38.95605,32.01221-4.6582,3.72314-9.12598,7.29395-13.38965,10.7373Z"/><path class="cls-2" d="M644.01074,574.15625c-.51465-2.94531-1.20703-6.40039-1.94043-10.05762-1.96973-9.82715-4.20215-20.96484-4.23047-27.98633-.06543-16.60449.61035-33.99219,1.2627-50.80762.36816-9.48486.74609-19.21924.98926-28.78662,3.09473,4.48242,6.80469,10.13525,8.68457,12.99951,1.07422,1.63672,1.95508,2.97852,2.5127,3.80811l25.31836,37.37744c-1.66895,5.15234-3.67676,10.64062-5.79102,16.4248-3.74414,10.23926-7.61523,20.82715-9.7207,30.03711-3.0498,13.34082-4.94629,30.4248-6.61914,45.49707-.58398,5.26562-1.13574,10.23828-1.71094,14.86133-.18359,1.46777-.37891,2.9502-.58301,4.44043l-8.17188-47.80762Z"/><path class="cls-2" d="M646.68652,293.9165c-29.9668-10.56787-60.41211-21.02148-90.56348-31.09473l-23.30273-7.91064c37.93457-4.1084,76.2168-8.48242,114.00195-13.02539.22266,6.16992.18066,23.29688-.125,51.08936-.00391.3252-.00781.63916-.01074.94141Z"/><path class="cls-2" d="M746.48535,345.92432c-1.50195-15.64941-3.93457-32.06543-6.29199-47.97363-2.11133-14.24854-4.28613-28.9248-5.79688-43.07227,1.03809.54541,2.10938,1.10791,3.20703,1.68408,12.98438,6.81592,29.01562,15.23096,39.12988,21.4292,1.00684,10.94727,4.32715,54.38086,4.51074,64.43115-10.06934.73584-22.81055,2.021-34.75879,3.50146ZM781.21582,344.26709h0Z"/><path class="cls-2" d="M658.47754,676.25977c2.81348,1.97754,6.15625,4.48145,8.84766,6.49805,1.30469.97754,2.47754,1.85547,3.40527,2.53613,9.21289,6.66895,18.38965,13.47168,27.32422,20.25684l-45.16406,72.32031c-3.6543,5.63184-7.2959,11.36621-10.88379,17.13965l16.4707-118.75098Z"/><path class="cls-2" d="M731.80664,338.62012c-6.71973-4.34131-16.78125-10.14746-24.10254-14.37305-2.54395-1.46777-4.7168-2.72168-6.23145-3.61621-6.01367-3.61572-12.25195-7.05518-18.28516-10.38135-4.59375-2.5332-9.3125-5.13477-13.94922-7.82471,2.32715-1.96094,4.98926-4.08398,7.5918-6.15967,1.91992-1.53027,3.7666-3.00342,5.35449-4.31396,12.89648-10.60596,26.01758-21.24902,39.06055-31.68164,2.2041,13.88037,7.73633,56.23828,10.56152,78.35059Z"/><path class="cls-2" d="M533.5293,503.46875c2.7793-18.15137,4.99121-38.55176,6.97266-56.8252l.17871-1.64746,67.24707-3.61914c1.5-.1001,3.06348-.17383,4.64453-.23486-3.43262,2.73438-7.33789,5.69824-10.96387,8.45068-2.9668,2.25098-5.76855,4.37744-8.06934,6.19287-19.47363,15.13672-39.16113,30.771-58.49707,46.45508l-1.5127,1.22803Z"/><path class="cls-2" d="M604.95215,660.60059c2.15137-8.31152,4.29297-16.68457,6.44141-25.08301,5.59277-21.86133,11.3457-44.35449,17.41602-66.25098.63184,3.52734,1.25195,7.17578,1.71191,9.88086.48535,2.85547.88965,5.23242,1.13672,6.53418,1.80762,9.51367,3.48926,19.30859,5.11523,28.78223,2.32715,13.55371,4.72754,27.53613,7.57422,41.16797-4.18945.61426-8.53613,1.1377-12.7666,1.64746-4.11621.49609-8.37109,1.00879-12.45898,1.60156-4.71973.51758-9.46875,1.09375-14.16992,1.71973Z"/><path class="cls-2" d="M819.1748,550.28809c-19.18359-9.85449-46.63672-24.10645-69.67578-37.13184,4.91699-7.31836,9.41504-14.5415,14.06738-22.06738,7.22461,5.05664,14.83008,10.26318,22.21289,15.31641,14.87891,10.18457,30.23438,20.69629,43.99609,30.99219-.9209,1.125-1.9834,2.45215-3.12891,3.87988-2.3291,2.90723-5.62207,7.0166-7.47168,9.01074Z"/><path class="cls-2" d="M754.66016,423.25293c-17.33008-22.95996-53.18555-72.00391-69.10352-94.27539,1.46875.8877,2.92383,1.77539,4.29297,2.61035,1.81543,1.10742,3.46973,2.11572,4.79297,2.9043,12.90625,7.63281,25.9082,15.51709,38.66504,23.44727,1.60742,4.07764,3.48145,10.11377,5.14844,15.48291.90234,2.90576,1.75391,5.6499,2.51562,7.93848,4.70312,13.82959,9.28809,27.86035,13.68848,41.89209Z"/><path class="cls-2" d="M770.9248,256.09717c-4.85156-2.74951-10.16992-5.50244-15.34668-8.18213-1.99512-1.0332-3.94434-2.04199-5.79688-3.01562l-12.06055-6.4248c1.73438-1.78662,3.60254-3.79297,5.70605-6.12744,8.12109-9.01025,16.74121-17.90137,25.07812-26.49951,5.88379-6.06885,11.91797-12.29199,17.82031-18.60156-.90332,4.3418-2.05957,9.30615-3.01465,13.40576-.52637,2.25781-.99512,4.271-1.33594,5.8125l-11.0498,49.63281Z"/><path class="cls-2" d="M773.00879,437.72461c-1.59082-5.61182-3.39062-11.24414-5.15332-16.75781-1.50586-4.71289-3.06348-9.58643-4.4248-14.25684-3.77832-12.96094-7.66406-26.29053-11.6709-39.73486,1.58008,1.24219,3.25391,2.60498,4.90625,3.95068,5.02734,4.09521,10.22559,8.32959,14.38477,10.62402l.66699.36768.76172.00537c6.88184.04785,13.8418.22363,20.74219.52344l-16.8584,45.70166-3.35449,9.57666Z"/><path class="cls-2" d="M879.22461,593.22461c-1.62988-.12793-3.0918-.2373-4.47266-.33984-14.52051-1.08691-19.63477-1.46973-33.98828-7.62793-3.15918-6.72266-7.68262-17.18652-10.26953-24.06152,2.80762-3.63281,5.61426-7.36328,8.33691-10.98438.57422-.7627,1.14746-1.52441,1.7207-2.28516,2.47949,2.37695,6.20605,6.34766,8.28906,8.56641.99805,1.06348,1.83203,1.95215,2.375,2.51172,10.93359,11.27148,21.05078,22.65723,31.53125,34.5791l-3.52246-.3584Z"/><path class="cls-2" d="M661.60547,657.91797c1.80273-12.10938,3.4082-24.37305,4.96387-36.25195.63086-4.81934,1.27344-9.73145,1.93359-14.65723,2.0791,5.9248,4.37207,12.81934,5.45508,16.0752.56445,1.69824,1.01855,3.06348,1.30664,3.9082l19.57617,56.79395-33.23535-25.86816Z"/></svg>